<?xml version="1.0" encoding="UTF-8" standalone="no"?><!DOCTYPE svg PUBLIC "-//W3C//DTD SVG 1.1//EN" "http://www.w3.org/Graphics/SVG/1.1/DTD/svg11.dtd"><svg width="100%" height="100%" viewBox="0 0 4117 4117" version="1.1" xmlns="http://www.w3.org/2000/svg" xmlns:xlink="http://www.w3.org/1999/xlink" xml:space="preserve" xmlns:serif="http://www.serif.com/" style="fill-rule:evenodd;clip-rule:evenodd;stroke-linejoin:round;stroke-miterlimit:2;"><g id="Discord"><path d="M4116.55,782.146c0,-431.679 -350.467,-782.146 -782.146,-782.146l-2552.26,0c-431.679,0 -782.146,350.467 -782.146,782.146l-0,2552.26c-0,431.679 350.467,782.146 782.146,782.146l2552.26,0c431.679,0 782.146,-350.467 782.146,-782.146l0,-2552.26Z" style="fill:#202020;"/></g><clipPath id="_clip1"><rect id="Discord-Symbol-Blurple.svg" x="537.854" y="905.808" width="3040.84" height="2305.05"/></clipPath><g clip-path="url(#_clip1)"><path id="Discord-Symbol-Blurple" d="M2486.34,905.808c-29.716,52.759 -56.399,107.338 -80.655,163.13c-230.445,-34.566 -465.135,-34.566 -696.185,0c-23.651,-55.792 -50.942,-110.371 -80.656,-163.13c-216.497,36.994 -427.536,101.881 -627.658,193.451c-396.608,587.635 -503.946,1160.11 -450.579,1724.69c232.262,171.62 492.423,302.609 769.562,386.297c62.462,-83.688 117.649,-172.833 164.951,-265.616c-89.753,-33.354 -176.474,-75.198 -259.554,-123.712c21.831,-15.768 43.057,-32.141 63.675,-47.909c486.966,229.233 1050.95,229.233 1538.52,0c20.619,16.981 41.844,33.354 63.675,47.909c-83.08,49.12 -169.801,90.358 -260.159,124.319c47.302,92.784 102.486,181.929 164.951,265.617c277.132,-83.688 537.29,-214.072 769.572,-385.69c63.053,-654.949 -107.953,-1222.57 -451.814,-1725.3c-199.504,-91.571 -410.544,-156.46 -627.041,-192.847l-0.605,-1.212Zm-933.301,1570.66c-149.787,-0 -274.106,-135.842 -274.106,-303.823c-0,-167.981 119.466,-304.43 273.501,-304.43c154.035,0 276.532,137.055 274.107,304.43c-2.425,167.376 -120.679,303.823 -273.502,303.823Zm1010.32,-0c-150.398,-0 -273.502,-135.842 -273.502,-303.823c0,-167.981 119.467,-304.43 273.502,-304.43c154.035,0 275.926,137.055 273.499,304.43c-2.425,167.376 -120.679,303.823 -273.499,303.823Z" style="fill:#fff;fill-rule:nonzero;"/></g></svg>